<?xml version="1.0" standalone="no"?>
<!DOCTYPE svg PUBLIC "-//W3C//DTD SVG 20010904//EN"
 "http://www.w3.org/TR/2001/REC-SVG-20010904/DTD/svg10.dtd">
<svg version="1.0" xmlns="http://www.w3.org/2000/svg"
 width="499.000000pt" height="499.000000pt" viewBox="0 0 499.000000 499.000000"
 preserveAspectRatio="xMidYMid meet">
<metadata>
Created by potrace 1.14, written by Peter Selinger 2001-2017
</metadata>
<g transform="translate(0.000000,499.000000) scale(0.100000,-0.100000)"
fill="#000000" stroke="none">
<path d="M3517 4868 c-19 -29 -89 -141 -157 -248 -67 -107 -127 -200 -134
-207 -9 -10 -32 -6 -106 18 -197 63 -384 91 -610 91 -184 -1 -390 -27 -522
-68 -12 -4 -39 33 -115 158 -54 90 -107 180 -118 201 -22 44 -37 49 -127 45
l-67 -3 37 -63 c20 -34 73 -122 116 -195 44 -72 88 -146 98 -163 l18 -31 -47
-18 c-67 -25 -226 -105 -308 -155 -483 -295 -835 -816 -919 -1360 -25 -160
-26 -180 -26 -330 -1 -185 20 -350 61 -500 11 -41 24 -88 28 -105 14 -52 82
-217 124 -300 86 -169 205 -336 341 -479 42 -44 76 -81 76 -83 0 -6 -40 -77
-68 -120 -15 -23 -50 -80 -78 -125 -28 -46 -81 -131 -117 -190 -62 -100 -65
-108 -47 -118 10 -5 21 -10 24 -10 3 0 78 109 167 243 88 133 167 248 174 256
11 11 18 9 42 -13 55 -52 260 -183 373 -239 230 -114 435 -172 710 -203 56 -6
291 -6 345 0 17 2 62 7 100 11 94 9 307 64 430 110 189 71 393 186 547 311 37
30 69 54 72 54 5 0 66 -88 66 -95 0 -4 38 -67 95 -155 12 -19 53 -87 90 -150
37 -63 69 -117 71 -119 1 -1 12 3 23 11 20 14 20 15 3 49 -44 83 -106 194
-111 199 -3 3 -24 39 -45 80 -22 41 -59 110 -83 152 -25 43 -43 82 -41 87 1 4
33 42 70 82 36 41 77 88 89 104 13 17 29 36 36 43 7 7 42 57 77 110 347 527
426 1185 211 1777 -70 193 -197 419 -324 575 -83 101 -245 256 -354 337 -98
73 -259 173 -309 192 -15 5 -29 15 -33 20 -3 6 24 59 60 119 37 59 104 168
150 242 52 84 80 139 75 145 -5 6 -29 26 -54 43 l-46 33 -33 -53z m93 -38 c0
-4 -29 -54 -64 -111 -36 -57 -88 -142 -117 -189 -64 -106 -97 -150 -110 -150
-6 0 -7 5 -4 11 4 6 -3 13 -15 16 -12 3 -19 11 -16 19 6 15 227 372 258 416
18 27 20 27 44 12 13 -9 24 -20 24 -24z m-1908 -9 c7 -1 151 -238 187 -308 12
-24 17 -43 11 -43 -6 0 -15 -12 -21 -27 l-10 -26 -17 23 c-48 67 -227 376
-221 380 7 5 36 5 71 1z m2208 -3801 c21 -30 80 -144 80 -155 0 -13 -39 41
-80 111 -22 38 -36 73 -32 82 5 13 6 14 10 1 3 -7 13 -25 22 -39z m-2764 -56
c-10 -7 -16 -16 -13 -21 2 -4 -7 -19 -20 -33 l-25 -25 26 53 c17 32 31 50 38
46 7 -5 5 -11 -6 -20z m-73 -116 c-10 -18 -22 -38 -28 -44 -5 -7 -34 -51 -64
-98 -30 -47 -58 -86 -63 -86 -5 0 8 26 28 58 21 31 58 90 83 129 46 72 79 103
44 41z m-177 -270 c-9 -12 -16 -19 -16 -15 0 11 24 47 28 42 2 -2 -3 -14 -12
-27z"/>
</g>
</svg>
